PathFileType	4	(X/Y/Z)	F:\MotionCapture\20160217\3\Generated_files\EMG_Fprce_test06-Dynamic.trc
DataRate	CameraRate	NumFrames	NumMarkers	Units	OrigDataRate	OrigDataStartFrame	OrigNumFrames
120.00	120.00	       4	39	mm	120.00	411	       657
Frame#	Time	Top.Head			Front.Head			Rear.Head			R.Shoulder			R.Offset			R.Elbow			R.Wrist			L.Shoulder			L.Elbow			L.Wrist			R.ASIS			L.ASIS			V.Sacral			R.Thigh			R.Knee			R.Shank			R.Ankle			R.Heel			R.Toe			L.Thigh			L.Knee			L.Shank			L.Ankle			L.Heel			L.Toe			R1			R2			R3			R4			R5			R6			R7			L1			L2			L3			L4			L5			L6			L7			V_Mid_ASIS			V_Pelvis_Origin			V_R.Hip_JC			V_L.Hip_JC			V_R.Knee_JC			V_L.Knee_JC			V_R.Ankle_JC			V_L.Ankle_JC			V_Mid_Hip			V_Mid_Shoulder			V_R.Hand			V_L.Hand			V_R.Toe_Offset_Static			V_L.Toe_Offset_Static			V_R.Toe_Offset			V_L.Toe_Offset			
		X1	Y1	Z1	X2	Y2	Z2	X3	Y3	Z3	X4	Y4	Z4	X5	Y5	Z5	X6	Y6	Z6	X7	Y7	Z7	X8	Y8	Z8	X9	Y9	Z9	X10	Y10	Z10	X11	Y11	Z11	X12	Y12	Z12	X13	Y13	Z13	X14	Y14	Z14	X15	Y15	Z15	X16	Y16	Z16	X17	Y17	Z17	X18	Y18	Z18	X19	Y19	Z19	X20	Y20	Z20	X21	Y21	Z21	X22	Y22	Z22	X23	Y23	Z23	X24	Y24	Z24	X25	Y25	Z25	X26	Y26	Z26	X27	Y27	Z27	X28	Y28	Z28	X29	Y29	Z29	X30	Y30	Z30	X31	Y31	Z31	X32	Y32	Z32	X33	Y33	Z33	X34	Y34	Z34	X35	Y35	Z35	X36	Y36	Z36	X37	Y37	Z37	X38	Y38	Z38	X39	Y39	Z39	

411	3.417	-1313.06177	201.57167	1731.72559	-1426.83838	197.94177	1652.25793	-1206.35339	193.62363	1659.56750	-1263.38501	386.52512	1423.18176	-1137.75403	118.17100	1283.66724	-1235.30518	487.09720	1097.59595	-1374.29724	494.43417	875.18134	-1292.08313	-18.86702	1429.35547	-1299.54346	-127.20830	1107.73132	-1454.91333	-120.89230	898.65021	-1329.46851	326.11597	949.61743	-1343.79492	39.86884	947.55481	-1114.72388	169.53534	951.21527	-1378.56067	267.11346	577.08612	-1317.43384	301.08099	465.13596	-1302.98889	216.60393	233.55312	-1238.90674	278.63669	70.65089	-1170.52356	214.38881	44.67740	-1383.30017	263.15155	39.36277	-1445.05481	48.53203	647.45160	-1368.62915	-14.47295	476.66025	-1307.24353	59.78574	345.99612	-1068.49707	19.98622	200.19458	-1021.94861	89.71307	225.38734	-1143.98413	6.28463	83.19530	-1428.80945	243.69611	38.09126	-1389.20654	224.76826	44.14066	-1291.98962	186.77641	53.24145	-1218.12830	184.80966	42.12370	-1200.70227	257.87842	43.86341	-1275.68970	287.60428	36.20431	-1341.07642	306.15692	34.96690	-1176.72241	20.75817	48.28404	-1160.54419	40.07296	74.17167	-1115.42834	97.00334	143.86844	-1055.76611	112.78906	196.24164	-1031.38220	44.51246	209.23578	-1069.61194	2.55718	149.80742	-1110.76184	-15.04237	106.94585																																																	-1813.87134	217.48715	333.21152	
412	3.425	-1326.08154	202.10896	1732.69446	-1439.93750	197.97435	1653.52783	-1219.54919	194.12766	1660.56458	-1276.54163	386.72168	1425.39844	-1150.71545	118.62613	1284.99426	-1253.47949	489.49857	1099.91394	-1402.40344	496.18033	883.77777	-1304.20874	-18.38151	1430.07983	-1306.15051	-127.18575	1108.92175	-1451.91431	-123.09368	893.37189	-1340.90967	328.15518	950.24023	-1357.37708	42.25854	949.84857	-1126.56873	168.24937	953.79688	-1383.90454	267.31293	575.69421	-1319.64758	301.30884	464.88358	-1305.73181	215.87286	234.20291	-1239.20325	278.15973	70.88287	-1170.95288	213.42763	45.47882	-1383.29163	263.22391	39.30917	-1463.44617	50.61627	653.24951	-1390.79382	-12.40045	480.36746	-1333.90027	62.44923	347.68228	-1101.38379	24.09162	190.97517	-1052.48340	94.46495	213.17207	-1184.58508	8.81117	81.24438	-1428.22131	244.11148	37.11070	-1389.47205	224.90784	44.16920	-1292.31519	186.78683	53.34773	-1218.34973	184.60208	42.31625	-1201.98499	258.10834	43.13117	-1275.75635	287.35931	36.28602	-1341.07007	306.18829	34.97656	-1219.02710	21.90983	47.13208	-1201.08179	41.82415	71.68882	-1152.86304	99.81003	137.11006	-1090.36609	116.12690	185.56503	-1063.08203	48.42817	197.99272	-1104.88354	6.48357	141.49467	-1149.26965	-12.39508	101.99078																																																	-1822.25110	216.25778	331.40945	3564.08667	-1454.34094	-1237.23975	
413	3.433	-1338.93921	202.00421	1733.87354	-1452.79297	198.22769	1654.16602	-1232.44482	194.18047	1661.75195	-1289.69470	386.73819	1427.11365	-1162.76746	120.08739	1286.46094	-1272.65979	492.63571	1101.94543	-1430.21814	497.77127	892.77600	-1316.98376	-18.19496	1430.57288	-1312.07605	-126.95594	1109.69946	-1449.23584	-125.95638	888.41418	-1351.96045	329.91779	950.57007	-1370.75122	44.23392	951.83038	-1139.34192	167.42740	955.30109	-1389.52271	267.39426	574.56445	-1322.11316	301.32330	464.55295	-1305.24011	216.70200	233.71152	-1238.65027	278.34329	71.00490	-1171.28284	212.99686	45.80332	-1383.27649	263.33456	39.21487	-1481.15063	52.74535	658.45703	-1412.00671	-10.39532	483.59457	-1360.23352	65.15099	348.60257	-1134.96851	27.90011	181.91792	-1085.31750	99.33369	199.40334	-1224.52014	11.04842	78.00990	-1429.31396	244.24631	37.96038	-1389.77161	225.62117	44.70622	-1292.83813	186.92278	53.52388	-1218.71692	184.13016	42.68751	-1201.90808	257.40448	43.70287	-1275.52551	287.17160	36.38300	-1341.05774	306.23846	34.87592	-1262.08984	23.22758	46.81308	-1242.35925	43.88525	69.42614	-1189.65259	102.89980	130.53609	-1125.87305	120.07785	174.41864	-1096.52075	53.73298	185.46686	-1141.94995	9.50417	133.42151	-1188.04944	-9.56836	96.78616																																																	-1830.07922	214.95961	329.31940	3522.86084	-1429.90759	-1426.94189	
414	3.442	-1351.89478	202.13202	1734.47339	-1465.78503	198.59058	1654.85120	-1245.31018	194.49712	1662.51550	-1302.89026	387.07431	1428.72668	-1175.09119	120.94347	1286.62439	-1291.20825	495.77017	1104.43640	-1457.64355	499.39838	901.94745	-1329.11438	-17.79658	1430.45239	-1317.99548	-126.81045	1110.46204	-1445.75415	-127.78831	883.81128	-1362.86816	331.66592	950.39758	-1384.04700	46.49082	953.54443	-1152.21863	166.44482	956.48395	-1394.80896	267.62985	573.46332	-1325.30554	302.06656	464.34161	-1306.88538	216.44380	233.82343	-1239.33972	278.50739	71.06625	-1171.65796	212.45844	46.23004	-1383.34558	263.47333	39.10154	-1498.80518	55.16380	663.11151	-1432.82007	-8.30362	486.43756	-1386.43958	67.88300	349.56067	-1169.15918	31.42764	172.13406	-1118.48547	103.41306	186.49655	-1265.01892	12.64408	74.35720	-1429.86975	244.65431	37.93468	-1389.90942	225.80748	44.69523	-1293.17505	186.42371	53.82270	-1219.27832	183.65025	43.35698	-1200.59949	256.50089	45.15558	-1275.31165	287.29443	36.90338	-1341.04724	306.19397	34.83545	-1305.04834	25.05389	46.81824	-1284.18518	45.69251	67.87370	-1226.86780	105.67062	123.72846	-1158.73450	123.59292	163.20917	-1130.72156	57.47732	173.51210	-1178.81360	12.48654	124.91712	-1227.49048	-6.67556	91.52111	
